# xmcd
#
# Track frame offsets:
#	182
#	14657
#	27495
#	45557
#	61682
#	70620
#	83357
#	95582
#	108557
#	120707
#	134205
#	149360
#
# Disc length: 2189 seconds
#
# Revision: 8
# Processed by: cddbd v1.5.2PL0 Copyright (c) Steve Scherf et al.
# Submitted via: dBpowerAMP V4.0
#
DISCID=a6088b0c
DTITLE=J.J. Cale - Troubadour
DYEAR=1976
DGENRE=Blues
TTITLE0=Hey Baby
TTITLE1=Travelin' Light
TTITLE2=You Got Something
TTITLE3=Ride Me High
TTITLE4=Hold on
TTITLE5=Cocaine
TTITLE6=I'm a Gypsy Man
TTITLE7=The Woman That Got Away
TTITLE8=Super Blue
TTITLE9=Let Me Do It to You
TTITLE10=Cherry
TTITLE11=You Got Me on So Bad
EXTD=
EXTT0=
EXTT1=
EXTT2=
EXTT3=
EXTT4=
EXTT5=
EXTT6=
EXTT7=
EXTT8=
EXTT9=
EXTT10=
EXTT11=
PLAYORDER=
